HIERARCHY
ROOT Root
{
  OFFSET 0.0 0.0 0.0
  CHANNELS 6 Xposition Yposition Zposition Zrotation Yrotation Xrotation
  JOINT Hips
  {
    OFFSET 0.0 100.0 0.0
    CHANNELS 6 Xposition Yposition Zposition Zrotation Yrotation Xrotation
    JOINT Spine1
    {
      OFFSET -0.013727 5.003763 -0.053727
      CHANNELS 3 Zrotation Yrotation Xrotation
      JOINT Spine2
      {
        OFFSET -0.0 7.125301 -0.029825
        CHANNELS 3 Zrotation Yrotation Xrotation
        JOINT Chest
        {
          OFFSET -1e-06 7.550063 -0.815971
          CHANNELS 3 Zrotation Yrotation Xrotation
          JOINT Neck1
          {
            OFFSET -0.181677 26.311295 -0.553348
            CHANNELS 3 Zrotation Yrotation Xrotation
            JOINT Neck2
            {
              OFFSET -3e-06 7.709397 2.302585
              CHANNELS 3 Zrotation Yrotation Xrotation
              JOINT Head
              {
                OFFSET -5e-06 6.128916 1.953709
                CHANNELS 3 Zrotation Yrotation Xrotation
                JOINT HeadEnd
                {
                  OFFSET 0.003598 16.065403 -1.835379
                  CHANNELS 3 Zrotation Yrotation Xrotation
                }
                JOINT Jaw
                {
                  OFFSET 0.002637 0.475592 3.094941
                  CHANNELS 3 Zrotation Yrotation Xrotation
                }
                JOINT LeftEye
                {
                  OFFSET 3.206381 5.380205 7.586883
                  CHANNELS 3 Zrotation Yrotation Xrotation
                }
                JOINT RightEye
                {
                  OFFSET -3.22244 5.361869 7.558234
                  CHANNELS 3 Zrotation Yrotation Xrotation
                }
              }
            }
          }
          JOINT LeftShoulder
          {
            OFFSET 1.621652 23.237164 5.113413
            CHANNELS 3 Zrotation Yrotation Xrotation
            JOINT LeftArm
            {
              OFFSET 14.919846 2e-06 -5.502326
              CHANNELS 3 Zrotation Yrotation Xrotation
              JOINT LeftForeArm
              {
                OFFSET 28.739307 0.0 -0.002588
                CHANNELS 3 Zrotation Yrotation Xrotation
                JOINT LeftHand
                {
                  OFFSET 27.093981 -1e-06 0.002609
                  CHANNELS 3 Zrotation Yrotation Xrotation
                  JOINT LeftHandThumb1
                  {
                    OFFSET 2.276482 -1.392045 3.191413
                    CHANNELS 3 Zrotation Yrotation Xrotation
                    JOINT LeftHandThumb2
                    {
                      OFFSET 4.012836 -1.828127 1.641654
                      CHANNELS 3 Zrotation Yrotation Xrotation
                      JOINT LeftHandThumb3
                      {
                        OFFSET 2.798515 0.0 -3e-06
                        CHANNELS 3 Zrotation Yrotation Xrotation
                        JOINT LeftHandThumbEnd
                        {
                          OFFSET 3.180793 -4e-06 4e-06
                          CHANNELS 3 Zrotation Yrotation Xrotation
                        }
                      }
                    }
                  }
                  JOINT LeftHandIndex1
                  {
                    OFFSET 3.247555 -0.531998 2.296169
                    CHANNELS 3 Zrotation Yrotation Xrotation
                    JOINT LeftHandIndex2
                    {
                      OFFSET 6.364578 0.01206 0.1786
                      CHANNELS 3 Zrotation Yrotation Xrotation
                      JOINT LeftHandIndex3
                      {
                        OFFSET 3.662364 0.0 0.0
                        CHANNELS 3 Zrotation Yrotation Xrotation
                        JOINT LeftHandIndex4
                        {
                          OFFSET 2.329242 4e-06 4e-06
                          CHANNELS 3 Zrotation Yrotation Xrotation
                          JOINT LeftHandIndexEnd
                          {
                            OFFSET 2.759615 -0.180537 -0.113024
                            CHANNELS 3 Zrotation Yrotation Xrotation
                          }
                        }
                      }
                    }
                  }
                  JOINT LeftHandMiddle1
                  {
                    OFFSET 3.163495 0.240981 1.000332
                    CHANNELS 3 Zrotation Yrotation Xrotation
                    JOINT LeftHandMiddle2
                    {
                      OFFSET 6.19078 -0.259278 -1.002548
                      CHANNELS 3 Zrotation Yrotation Xrotation
                      JOINT LeftHandMiddle3
                      {
                        OFFSET 4.35652 -4e-06 -1e-06
                        CHANNELS 3 Zrotation Yrotation Xrotation
                        JOINT LeftHandMiddle4
                        {
                          OFFSET 2.996877 -8e-06 0.0
                          CHANNELS 3 Zrotation Yrotation Xrotation
                          JOINT LeftHandMiddleEnd
                          {
                            OFFSET 2.304287 -0.294569 -0.031741
                            CHANNELS 3 Zrotation Yrotation Xrotation
                          }
                        }
                      }
                    }
                  }
                  JOINT LeftHandRing1
                  {
                    OFFSET 2.882643 -0.053652 -0.322543
                    CHANNELS 3 Zrotation Yrotation Xrotation
                    JOINT LeftHandRing2
                    {
                      OFFSET 5.854541 -0.486202 -1.373841
                      CHANNELS 3 Zrotation Yrotation Xrotation
                      JOINT LeftHandRing3
                      {
                        OFFSET 4.350578 0.0 3e-06
                        CHANNELS 3 Zrotation Yrotation Xrotation
                        JOINT LeftHandRing4
                        {
                          OFFSET 2.651321 7e-06 2e-06
                          CHANNELS 3 Zrotation Yrotation Xrotation
                          JOINT LeftHandRingEnd
                          {
                            OFFSET 1.936105 0.077687 -7.1e-05
                            CHANNELS 3 Zrotation Yrotation Xrotation
                          }
                        }
                      }
                    }
                  }
                  JOINT LeftHandPinky1
                  {
                    OFFSET 2.8655 -0.310005 -1.600378
                    CHANNELS 3 Zrotation Yrotation Xrotation
                    JOINT LeftHandPinky2
                    {
                      OFFSET 5.087849 -1.331141 -1.77123
                      CHANNELS 3 Zrotation Yrotation Xrotation
                      JOINT LeftHandPinky3
                      {
                        OFFSET 3.070974 4e-06 0.0
                        CHANNELS 3 Zrotation Yrotation Xrotation
                        JOINT LeftHandPinky4
                        {
                          OFFSET 1.549672 0.0 1e-06
                          CHANNELS 3 Zrotation Yrotation Xrotation
                          JOINT LeftHandPinkyEnd
                          {
                            OFFSET 1.944893 -0.157802 0.057219
                            CHANNELS 3 Zrotation Yrotation Xrotation
                          }
                        }
                      }
                    }
                  }
                }
              }
            }
          }
          JOINT RightShoulder
          {
            OFFSET -1.380118 23.180309 5.214158
            CHANNELS 3 Zrotation Yrotation Xrotation
            JOINT RightArm
            {
              OFFSET -15.037196 1.2e-05 -5.545604
              CHANNELS 3 Zrotation Yrotation Xrotation
              JOINT RightForeArm
              {
                OFFSET -28.736639 2e-06 -0.002597
                CHANNELS 3 Zrotation Yrotation Xrotation
                JOINT RightHand
                {
                  OFFSET -27.133619 -0.0 0.002613
                  CHANNELS 3 Zrotation Yrotation Xrotation
                  JOINT RightHandThumb1
                  {
                    OFFSET -2.274032 -1.383988 3.163127
                    CHANNELS 3 Zrotation Yrotation Xrotation
                    JOINT RightHandThumb2
                    {
                      OFFSET -4.011429 -1.827466 1.640914
                      CHANNELS 3 Zrotation Yrotation Xrotation
                      JOINT RightHandThumb3
                      {
                        OFFSET -2.794935 -4e-06 -3e-06
                        CHANNELS 3 Zrotation Yrotation Xrotation
                        JOINT RightHandThumbEnd
                        {
                          OFFSET -3.183852 4e-06 1e-06
                          CHANNELS 3 Zrotation Yrotation Xrotation
                        }
                      }
                    }
                  }
                  JOINT RightHandIndex1
                  {
                    OFFSET -3.253266 -0.520057 2.282866
                    CHANNELS 3 Zrotation Yrotation Xrotation
                    JOINT RightHandIndex2
                    {
                      OFFSET -6.341917 0.012471 0.178266
                      CHANNELS 3 Zrotation Yrotation Xrotation
                      JOINT RightHandIndex3
                      {
                        OFFSET -3.654871 -8e-06 -0.0
                        CHANNELS 3 Zrotation Yrotation Xrotation
                        JOINT RightHandIndex4
                        {
                          OFFSET -2.327586 0.0 1e-06
                          CHANNELS 3 Zrotation Yrotation Xrotation
                          JOINT RightHandIndexEnd
                          {
                            OFFSET -2.76179 -0.180656 -0.113078
                            CHANNELS 3 Zrotation Yrotation Xrotation
                          }
                        }
                      }
                    }
                  }
                  JOINT RightHandMiddle1
                  {
                    OFFSET -3.168106 0.246593 1.00103
                    CHANNELS 3 Zrotation Yrotation Xrotation
                    JOINT RightHandMiddle2
                    {
                      OFFSET -6.180828 -0.258836 -1.000895
                      CHANNELS 3 Zrotation Yrotation Xrotation
                      JOINT RightHandMiddle3
                      {
                        OFFSET -4.348901 0.0 -0.0
                        CHANNELS 3 Zrotation Yrotation Xrotation
                        JOINT RightHandMiddle4
                        {
                          OFFSET -3.00024 -4e-06 -2e-06
                          CHANNELS 3 Zrotation Yrotation Xrotation
                          JOINT RightHandMiddleEnd
                          {
                            OFFSET -2.30252 -0.29437 -0.031706
                            CHANNELS 3 Zrotation Yrotation Xrotation
                          }
                        }
                      }
                    }
                  }
                  JOINT RightHandRing1
                  {
                    OFFSET -2.88569 -0.067952 -0.308858
                    CHANNELS 3 Zrotation Yrotation Xrotation
                    JOINT RightHandRing2
                    {
                      OFFSET -5.854198 -0.48613 -1.373731
                      CHANNELS 3 Zrotation Yrotation Xrotation
                      JOINT RightHandRing3
                      {
                        OFFSET -4.33881 -4e-06 -0.0
                        CHANNELS 3 Zrotation Yrotation Xrotation
                        JOINT RightHandRing4
                        {
                          OFFSET -2.654903 -4e-06 4e-06
                          CHANNELS 3 Zrotation Yrotation Xrotation
                          JOINT RightHandRingEnd
                          {
                            OFFSET -1.933568 0.077527 -5.2e-05
                            CHANNELS 3 Zrotation Yrotation Xrotation
                          }
                        }
                      }
                    }
                  }
                  JOINT RightHandPinky1
                  {
                    OFFSET -2.866425 -0.342796 -1.584145
                    CHANNELS 3 Zrotation Yrotation Xrotation
                    JOINT RightHandPinky2
                    {
                      OFFSET -5.091371 -1.332055 -1.772385
                      CHANNELS 3 Zrotation Yrotation Xrotation
                      JOINT RightHandPinky3
                      {
                        OFFSET -3.062664 -4e-06 1e-06
                        CHANNELS 3 Zrotation Yrotation Xrotation
                        JOINT RightHandPinky4
                        {
                          OFFSET -1.546529 4e-06 -2e-06
                          CHANNELS 3 Zrotation Yrotation Xrotation
                          JOINT RightHandPinkyEnd
                          {
                            OFFSET -1.945119 -0.157718 0.057211
                            CHANNELS 3 Zrotation Yrotation Xrotation
                          }
                        }
                      }
                    }
                  }
                }
              }
            }
          }
        }
      }
    }
    JOINT LeftLeg
    {
      OFFSET 10.043214 -8.434526 2.595655
      CHANNELS 3 Zrotation Yrotation Xrotation
      JOINT LeftShin
      {
        OFFSET -1e-06 -43.221752 -0.802913
        CHANNELS 3 Zrotation Yrotation Xrotation
        JOINT LeftFoot
        {
          OFFSET 1e-06 -42.155094 -3.481523
          CHANNELS 3 Zrotation Yrotation Xrotation
          JOINT LeftToeBase
          {
            OFFSET 0.0 -5.059472 13.231529
            CHANNELS 3 Zrotation Yrotation Xrotation
            JOINT LeftToeEnd
            {
              OFFSET -0.009607 -1.647619 6.513017
              CHANNELS 3 Zrotation Yrotation Xrotation
            }
          }
        }
      }
    }
    JOINT RightLeg
    {
      OFFSET -10.047278 -8.29526 2.620317
      CHANNELS 3 Zrotation Yrotation Xrotation
      JOINT RightShin
      {
        OFFSET 1e-06 -43.362206 -0.805556
        CHANNELS 3 Zrotation Yrotation Xrotation
        JOINT RightFoot
        {
          OFFSET 2e-06 -42.117393 -3.478398
          CHANNELS 3 Zrotation Yrotation Xrotation
          JOINT RightToeBase
          {
            OFFSET -0.0 -5.079609 13.284196
            CHANNELS 3 Zrotation Yrotation Xrotation
            JOINT RightToeEnd
            {
              OFFSET 0.009532 -1.634378 6.460591
              CHANNELS 3 Zrotation Yrotation Xrotation
            }
          }
        }
      }
    }
  }
}
MOTION
Frames: 5
Frame Time: 0.03333333333333333
0.0 0.0 0.0 0.0 -0.0 0.0 -2.99495 100.155304 5.469893 0.10198 0.340276 -4.271493 1.829869 0.060265 0.116769 -0.071635 0.099032 -5.194829 -0.792001 -1.680599 11.96954 2.675321 1.406585 20.996 -1.25077 -1.998641 -3.554118 1.57327 -3.524391 4.252068 7.7e-05 -2.3e-05 5e-06 -0.038136 0.078397 -0.052331 0.694806 -3.664401 -10.525751 -0.770745 3.82347 -10.58221 -14.626408 -4.210496 14.908215 -60.22266 -14.005963 37.239822 0.490822 -22.978424 -0.107705 3.80435 0.259974 6.119976 -5.882112 9.861293 0.70259 -10.936881 -0.360575 7.156209 0.0 8.774833 -2e-06 -15.91651 17.993229 6.134705 -1.844035 2.498507 -2.507279 -10.16361 4.678948 4.621111 -20.976044 -4e-06 2e-06 -21.226307 2.451699 -3.594004 -0.0 -6e-06 0.0 -1.362683 2.240801 -0.746324 -21.334934 0.584909 3.008324 -13.821226 -3e-06 1e-06 -23.887192 -0.24908 -0.839483 -60.190701 2.61406 -1.422282 -0.294025 1.679688 0.833257 -14.218221 0.093215 1.300579 -34.212082 -0.287564 0.967169 -20.033232 0.964535 1.212843 1e-06 -1e-06 0.0 -3.440391 0.788234 0.501655 -15.928201 -3.167312 2.999707 -6.338831 -1e-06 1e-06 -18.123463 3.648185 -4.905676 -4e-06 0.0 -3e-06 13.483485 8.597814 16.656713 62.144478 13.956292 37.458439 0.288605 24.546169 0.134245 -2.330224 -2.788815 -4.578593 2.243542 -5.255039 -3.18016 14.282898 -0.826595 6.952501 -2e-06 -12.69061 -1e-06 16.156919 -17.507973 2.523748 1.665667 -1.955923 -2.878301 4.727801 -4.17059 4.993926 11.020534 3e-06 2e-06 12.109059 -3.735717 -2.866783 0.0 -0.0 2e-06 1.291987 -1.92855 -1.498093 14.800136 0.567469 3.865609 14.242582 -1.341737 -6.660658 19.631981 0.143924 -0.648244 49.911728 -0.674415 -6.676674 0.353029 -1.511151 -0.031939 20.222803 3.684313 2.31663 18.787285 5e-06 -0.0 10.751634 -0.47987 1.397906 -1e-06 -1e-06 1e-06 3.273808 0.305947 -0.580112 21.486824 11.830381 2.266133 8.16293 1e-06 -0.0 18.399092 -3.798988 -4.940577 3e-06 -1e-06 -0.0 0.40642 8.304577 2.105453 0.010734 0.31065 6.876581 -1.895808 6.161352 -5.173412 1.634432 -1.826616 -1.723116 0.0 -0.0 2e-06 0.363444 1.574651 1.78314 0.013068 -0.05252 7.488006 1.315772 -2.874942 -5.256726 -1.425282 1.147035 -1.401112 0.0 0.0 -1e-06 
0.0 0.0 0.0 0.0 -0.0 0.0 -3.01698 100.165161 5.494005 0.101695 0.304477 -4.235073 1.797693 0.036415 0.105458 -0.062017 0.16869 -5.201184 -0.809517 -1.683835 11.922411 2.769772 1.292031 21.027056 -1.241976 -1.997014 -3.531834 1.59672 -3.620295 4.185498 7.7e-05 -2.2e-05 5e-06 -0.051154 0.095591 -0.051649 0.687996 -3.650731 -10.527355 -0.789572 3.84315 -10.58997 -14.420387 -4.179557 14.969036 -60.375607 -13.9765 37.479507 0.522056 -23.109627 -0.153469 3.763564 0.10301 6.569956 -5.88211 9.861292 0.70259 -10.936878 -0.360575 7.156204 1e-06 8.77483 -2e-06 -15.8707 17.936117 6.140246 -1.844033 2.498506 -2.507278 -10.163608 4.678949 4.62111 -20.97604 -3e-06 4e-06 -21.226303 2.451699 -3.594003 -1e-06 -6e-06 0.0 -1.362683 2.2408 -0.746323 -21.33493 0.584911 3.008325 -13.821223 -3e-06 2e-06 -23.887188 -0.249078 -0.839484 -60.180046 2.556494 -1.364671 -0.294025 1.679688 0.833257 -14.218219 0.093214 1.300581 -34.212074 -0.287565 0.967172 -20.03323 0.964536 1.212844 2e-06 -1e-06 0.0 -3.440391 0.788234 0.501655 -15.928198 -3.167312 2.999707 -6.338831 -1e-06 1e-06 -18.123459 3.648186 -4.905672 -4e-06 -1e-06 -2e-06 13.390374 8.557258 16.751543 62.274368 14.043309 37.277771 0.296181 24.511206 0.123933 -2.302561 -2.713684 -4.691961 2.243543 -5.255038 -3.180159 14.282896 -0.826595 6.952506 -2e-06 -12.690608 -0.0 16.158634 -17.492311 2.506325 1.665667 -1.955922 -2.878302 4.7278 -4.170589 4.993925 11.020531 3e-06 1e-06 12.109056 -3.735717 -2.866786 -0.0 -0.0 2e-06 1.291986 -1.92855 -1.49809 14.800136 0.567467 3.865609 14.242577 -1.341737 -6.660659 19.631973 0.143926 -0.648248 49.993633 -0.681528 -6.647364 0.353029 -1.511151 -0.03194 20.222801 3.68431 2.316631 18.787281 5e-06 -1e-06 10.751631 -0.479869 1.397905 -1e-06 0.0 1e-06 3.273808 0.305948 -0.58011 21.48682 11.830378 2.266131 8.16293 0.0 -1e-06 18.399088 -3.798984 -4.940578 3e-06 1e-06 -1e-06 0.403414 8.196244 2.167174 -0.006333 0.257726 6.707459 -2.078527 6.301763 -5.134861 1.636602 -1.84681 -1.804615 -0.0 -0.0 2e-06 0.375328 1.553197 1.835687 0.008571 -0.050508 7.331303 1.296013 -2.786371 -5.195204 -1.427327 1.125355 -1.443888 0.0 -0.0 -1e-06 
0.0 0.0 0.0 0.0 -0.0 0.0 -3.073097 100.167023 5.541444 0.109821 0.252438 -4.216911 1.763912 0.013849 0.103272 -0.054537 0.206282 -5.215656 -0.829983 -1.65244 11.897318 2.893 1.155717 21.057854 -1.23521 -2.008502 -3.540292 1.63491 -3.698196 4.177657 7.7e-05 -2.3e-05 5e-06 -0.05462 0.102029 -0.049796 0.685095 -3.646862 -10.546069 -0.793165 3.850955 -10.60775 -14.222681 -4.130647 14.99021 -60.451935 -13.87235 37.752518 0.552916 -23.435436 -0.192276 3.741174 -0.018267 7.029623 -5.882109 9.861291 0.702588 -10.936877 -0.360576 7.156209 1e-06 8.77483 -1e-06 -15.833434 17.905001 6.143761 -1.844033 2.498505 -2.507278 -10.163605 4.678948 4.621113 -20.976038 -5e-06 2e-06 -21.226299 2.451696 -3.594004 -1e-06 -7e-06 -1e-06 -1.362682 2.240799 -0.746324 -21.334925 0.584908 3.008322 -13.82122 -3e-06 3e-06 -23.887182 -0.249081 -0.839484 -60.138035 2.563428 -1.405569 -0.294025 1.679688 0.833256 -14.218216 0.093215 1.300581 -34.212067 -0.287566 0.967169 -20.033226 0.964536 1.212844 2e-06 -1e-06 -0.0 -3.440389 0.788234 0.501657 -15.928196 -3.167312 2.999709 -6.33883 -2e-06 0.0 -18.123457 3.648183 -4.905676 -3e-06 -2e-06 -3e-06 13.328853 8.535991 16.825159 62.336227 14.058478 37.003742 0.284992 24.584705 0.109755 -2.387792 -2.631937 -4.722691 2.243543 -5.255041 -3.180159 14.282901 -0.826596 6.952507 -2e-06 -12.690614 2e-06 16.184975 -17.473284 2.503436 1.665667 -1.955922 -2.8783 4.727802 -4.17059 4.993927 11.020533 3e-06 1e-06 12.109059 -3.735718 -2.866785 0.0 -0.0 2e-06 1.291987 -1.92855 -1.49809 14.800139 0.567468 3.865608 14.242582 -1.341737 -6.660662 19.631979 0.143925 -0.648245 50.052383 -0.699094 -6.646064 0.35303 -1.511153 -0.03194 20.222803 3.684312 2.316632 18.787287 3e-06 1e-06 10.751634 -0.479869 1.397908 -0.0 -0.0 0.0 3.273808 0.305947 -0.580111 21.486828 11.830382 2.266133 8.162933 1e-06 1e-06 18.399096 -3.798988 -4.940576 3e-06 0.0 -1e-06 0.411821 8.071254 2.22763 -0.013454 0.232262 6.612953 -2.230716 6.457798 -5.13894 1.639277 -1.852064 -1.839669 0.0 -0.0 2e-06 0.40511 1.583331 1.862446 0.006388 -0.044005 7.292617 1.278116 -2.776514 -5.202239 -1.42765 1.120944 -1.432927 0.0 -0.0 -1e-06 
0.0 0.0 0.0 0.0 -0.0 0.0 -3.122291 100.169861 5.573648 0.120143 0.199583 -4.204852 1.733934 0.003147 0.10963 -0.04987 0.223358 -5.231424 -0.858926 -1.607891 11.870806 3.001956 1.028361 21.091993 -1.218784 -2.010568 -3.550803 1.686812 -3.741638 4.153945 7.7e-05 -2.3e-05 5e-06 -0.051759 0.099351 -0.047407 0.687163 -3.649973 -10.559041 -0.789259 3.848017 -10.619446 -14.078802 -4.06476 15.004201 -60.444237 -13.770892 38.03072 0.603008 -23.824324 -0.219274 3.814144 -0.151185 7.556011 -5.882103 9.86128 0.702592 -10.936866 -0.360575 7.156204 1e-06 8.774821 -1e-06 -15.769765 17.849142 6.144195 -1.844032 2.498503 -2.507276 -10.163597 4.678943 4.621105 -20.976021 -4e-06 3e-06 -21.226286 2.451694 -3.593999 -1e-06 -6e-06 -0.0 -1.362681 2.240797 -0.746324 -21.334909 0.584908 3.008323 -13.821208 -3e-06 2e-06 -23.887163 -0.249079 -0.839482 -60.062813 2.576812 -1.453906 -0.294026 1.679687 0.833254 -14.218204 0.093214 1.300581 -34.212036 -0.287565 0.967168 -20.033205 0.964537 1.212844 2e-06 -1e-06 -0.0 -3.440386 0.788232 0.501656 -15.928179 -3.167308 2.999705 -6.338824 -1e-06 1e-06 -18.123442 3.648181 -4.905667 -2e-06 -0.0 -4e-06 13.298402 8.52566 16.889179 62.349567 14.057213 36.796146 0.226803 24.651146 0.086703 -2.526406 -2.503678 -4.849322 2.243541 -5.255036 -3.180155 14.282887 -0.826595 6.952499 -1e-06 -12.690601 -0.0 16.195747 -17.445419 2.509686 1.665665 -1.955921 -2.878299 4.727798 -4.170586 4.993923 11.020522 2e-06 -2e-06 12.109048 -3.735715 -2.866785 -0.0 0.0 2e-06 1.291986 -1.928549 -1.498089 14.800122 0.567467 3.865607 14.242568 -1.341737 -6.660656 19.631958 0.143925 -0.648247 50.046383 -0.712932 -6.642439 0.353029 -1.51115 -0.031941 20.222784 3.684306 2.316629 18.787268 3e-06 -0.0 10.751625 -0.479869 1.397906 -1e-06 -1e-06 1e-06 3.273806 0.305947 -0.580111 21.486803 11.830369 2.266134 8.162922 0.0 -3e-06 18.399076 -3.798986 -4.940573 3e-06 0.0 -0.0 0.421692 8.003489 2.29276 -0.01555 0.221748 6.505013 -2.361256 6.587079 -5.124856 1.642337 -1.847561 -1.858812 -0.0 -0.0 2e-06 0.425798 1.620454 1.885601 0.007418 -0.045975 7.254054 1.29191 -2.778223 -5.201685 -1.428455 1.115141 -1.422226 0.0 -0.0 -1e-06 
0.0 0.0 0.0 0.0 -0.0 0.0 -3.155299 100.173912 5.599449 0.127039 0.173975 -4.182888 1.713876 0.019723 0.099039 -0.048562 0.225465 -5.244895 -0.90512 -1.574218 11.848389 3.109368 0.917604 21.098288 -1.191402 -2.031848 -3.549975 1.764352 -3.784695 4.1352 7.7e-05 -2.2e-05 5e-06 -0.049345 0.097444 -0.043702 0.690418 -3.651798 -10.558628 -0.787597 3.845693 -10.618249 -13.985005 -3.999315 15.033269 -60.399364 -13.752302 38.362297 0.672197 -24.11949 -0.249785 4.000011 -0.267096 8.296047 -5.882108 9.861286 0.70259 -10.936875 -0.360574 7.156207 1e-06 8.774826 1e-06 -15.694955 17.790916 6.169043 -1.844032 2.498505 -2.507276 -10.163602 4.678945 4.621107 -20.976027 -3e-06 4e-06 -21.226288 2.451699 -3.593999 -0.0 -6e-06 -1e-06 -1.362682 2.240798 -0.746322 -21.334919 0.58491 3.008325 -13.821215 -2e-06 3e-06 -23.887175 -0.249078 -0.839482 -59.972263 2.600004 -1.47451 -0.294026 1.679688 0.833256 -14.218212 0.093215 1.300581 -34.212063 -0.287563 0.967172 -20.033218 0.964537 1.212844 2e-06 -1e-06 -0.0 -3.440389 0.788234 0.501656 -15.928189 -3.16731 2.999707 -6.338828 -1e-06 1e-06 -18.123451 3.648184 -4.90567 -3e-06 -1e-06 -2e-06 13.274661 8.514911 16.91918 62.350365 14.054351 36.714386 0.153282 24.642721 0.066571 -2.69963 -2.345822 -5.035621 2.243543 -5.255038 -3.180158 14.282896 -0.826597 6.952504 -0.0 -12.690607 0.0 16.183052 -17.427336 2.515675 1.665667 -1.955922 -2.8783 4.727801 -4.170588 4.993925 11.02053 2e-06 -1e-06 12.109056 -3.735717 -2.866785 0.0 -0.0 2e-06 1.291986 -1.928549 -1.498088 14.800134 0.567466 3.865609 14.242579 -1.341738 -6.660661 19.631975 0.143922 -0.648247 50.007782 -0.718766 -6.654112 0.353029 -1.511151 -0.031939 20.222801 3.684307 2.31663 18.787283 2e-06 -1e-06 10.751632 -0.47987 1.397906 -0.0 -1e-06 0.0 3.273808 0.305947 -0.580111 21.486818 11.830374 2.266131 8.16293 -0.0 -2e-06 18.399088 -3.798987 -4.940578 3e-06 -1e-06 -0.0 0.425016 7.956971 2.335113 -0.009788 0.223902 6.407637 -2.460458 6.67702 -5.105067 1.644441 -1.840068 -1.871402 -0.0 -1e-06 2e-06 0.494346 1.6409 1.914283 0.012316 -0.049772 7.194625 1.277507 -2.783923 -5.191803 -1.429698 1.11345 -1.412496 -0.0 -0.0 -1e-06 
